<svg width="20" height="20" viewBox="0 0 26 26" fill="none" xmlns="http://www.w3.org/2000/svg">
    <path d="M18.0325 22.7004H8.77352C8.23155 22.6991 7.71217 22.4832 7.32894 22.1C6.94571 21.7167 6.72984 21.1974 6.72852 20.6554V6.2334C6.72852 6.03449 6.80753 5.84372 6.94818 5.70307C7.08884 5.56242 7.2796 5.4834 7.47852 5.4834H19.3285C19.5274 5.4834 19.7182 5.56242 19.8588 5.70307C19.9995 5.84372 20.0785 6.03449 20.0785 6.2334V20.6554C20.0772 21.1975 19.8612 21.7171 19.4777 22.1003C19.0943 22.4836 18.5747 22.6993 18.0325 22.7004ZM8.22852 6.9834V20.6554C8.22865 20.7999 8.28611 20.9384 8.38829 21.0406C8.49047 21.1428 8.62901 21.2003 8.77352 21.2004H18.0325C18.1771 21.2004 18.3158 21.143 18.4181 21.0408C18.5204 20.9386 18.5779 20.8 18.578 20.6554V6.9834H8.22852Z" fill="white"/>
    <path d="M16.5531 6.98329H10.2531C10.0541 6.98329 9.86337 6.90427 9.72272 6.76362C9.58207 6.62297 9.50305 6.4322 9.50305 6.23329V4.87029C9.50385 4.27729 9.7398 3.70881 10.1592 3.28955C10.5785 2.87028 11.1471 2.63445 11.7401 2.63379H15.0661C15.6591 2.63445 16.2276 2.87028 16.6469 3.28955C17.0663 3.70881 17.3023 4.27729 17.3031 4.87029V6.23329C17.3031 6.4322 17.224 6.62297 17.0834 6.76362C16.9427 6.90427 16.752 6.98329 16.5531 6.98329ZM11.0031 5.48329H15.8031V4.87029C15.8028 4.67495 15.725 4.4877 15.5869 4.34962C15.4487 4.21154 15.2614 4.13392 15.0661 4.13379H11.7401C11.5448 4.13405 11.3576 4.21173 11.2196 4.3498C11.0815 4.48786 11.0038 4.67504 11.0036 4.87029L11.0031 5.48329Z" fill="white"/>
    <path d="M13.403 19.829C13.2041 19.829 13.0133 19.75 12.8727 19.6093C12.732 19.4687 12.653 19.2779 12.653 19.079V9.10449C12.653 8.90558 12.732 8.71481 12.8727 8.57416C13.0133 8.43351 13.2041 8.35449 13.403 8.35449C13.6019 8.35449 13.7927 8.43351 13.9333 8.57416C14.074 8.71481 14.153 8.90558 14.153 9.10449V19.079C14.153 19.2779 14.074 19.4687 13.9333 19.6093C13.7927 19.75 13.6019 19.829 13.403 19.829Z" fill="white"/>
    <path d="M10.6951 19.829C10.4962 19.829 10.3054 19.75 10.1647 19.6093C10.0241 19.4687 9.94507 19.2779 9.94507 19.079V9.10449C9.94507 8.90558 10.0241 8.71481 10.1647 8.57416C10.3054 8.43351 10.4962 8.35449 10.6951 8.35449C10.894 8.35449 11.0847 8.43351 11.2254 8.57416C11.3661 8.71481 11.4451 8.90558 11.4451 9.10449V19.079C11.4451 19.2779 11.3661 19.4687 11.2254 19.6093C11.0847 19.75 10.894 19.829 10.6951 19.829Z" fill="white"/>
    <path d="M16.1115 19.829C15.9126 19.829 15.7218 19.75 15.5812 19.6093C15.4405 19.4687 15.3615 19.2779 15.3615 19.079V9.10449C15.3615 8.90558 15.4405 8.71481 15.5812 8.57416C15.7218 8.43351 15.9126 8.35449 16.1115 8.35449C16.3104 8.35449 16.5012 8.43351 16.6418 8.57416C16.7825 8.71481 16.8615 8.90558 16.8615 9.10449V19.079C16.8615 19.2779 16.7825 19.4687 16.6418 19.6093C16.5012 19.75 16.3104 19.829 16.1115 19.829Z" fill="white"/>
    <path d="M20.4905 6.9834H6.31604C6.11713 6.9834 5.92636 6.90438 5.78571 6.76373C5.64506 6.62308 5.56604 6.43231 5.56604 6.2334C5.56604 6.03449 5.64506 5.84372 5.78571 5.70307C5.92636 5.56242 6.11713 5.4834 6.31604 5.4834H20.4905C20.6895 5.4834 20.8802 5.56242 21.0209 5.70307C21.1615 5.84372 21.2405 6.03449 21.2405 6.2334C21.2405 6.43231 21.1615 6.62308 21.0209 6.76373C20.8802 6.90438 20.6895 6.9834 20.4905 6.9834Z" fill="white"/>
</svg>
